<svg id="Calque_1" data-name="Calque 1" xmlns="http://www.w3.org/2000/svg" xmlns:xlink="http://www.w3.org/1999/xlink" viewBox="0 0 34.68 34.68">
  <defs>
    <symbol id="bière" data-name="bière" viewBox="0 0 42.32 48.19">
      <path d="M1.06,10.86s13.33-4.42,27.59,0V46s-27.36.23-27.59,0S1.06,10.86,1.06,10.86Z" style="fill: #ebc376"/>
      <path d="M1.06,10.72V3.45L2,2.16,4.34.87H9.5L11.26,0h6.33V.52h4L22.16,0l.65.64.87.35h2l1.44.82.93.58.63.47v7.63S7.15,8.26,1.06,10.72Z" style="fill: #faf8f8"/>
      <rect y="3.1" width="0.95" height="42.67" style="fill: #6b564c"/>
      <rect x="28.65" y="2.95" width="0.91" height="43.01" style="fill: #6b564c"/>
      <path d="M0,44.68V46c11.65,5,29.34,0,29.34,0l0-1.89C11.53,48.27,0,44.68,0,44.68Z" style="fill: #6b564c"/>
      <path d="M29.37,17.16c15-9.17,19.44,20.45,0,28.73l.07-9.73C32.1,37.53,38.33,33,39.53,27.6,41,20.44,32.7,12.27,29.37,24.85Z" style="fill: #6b564c"/>
      <path d="M.07,3.15a235.11,235.11,0,0,0,28.58-.21v.55S7.89,4.6.07,3.49" style="fill: #6b564c"/>
      <rect x="14.37" y="12.96" width="0.82" height="26.99" style="fill: #6b564c"/>
      <rect x="22.92" y="12.96" width="0.82" height="26.99" style="fill: #6b564c"/>
      <rect x="4.92" y="12.96" width="0.82" height="26.99" style="fill: #6b564c"/>
    </symbol>
  </defs>
  <circle cx="17.34" cy="17.34" r="16.34" style="fill: #edefda;stroke: #6b564c;stroke-miterlimit: 10;stroke-width: 2px"/>
  <use width="42.32" height="48.19" transform="translate(9.8 6.02) scale(0.47)" xlink:href="#bière"/>
</svg>
