<svg id="Calque_1" data-name="Calque 1" xmlns="http://www.w3.org/2000/svg" xmlns:xlink="http://www.w3.org/1999/xlink" viewBox="0 0 34.68 34.68">
  <defs>
    <symbol id="citron" data-name="citron" viewBox="0 0 114.25 53.96">
      <path d="M80.65.14a33.86,33.86,0,0,0-9.25,3c5.75,1,10.82,4.49,15,8.28C87.66,6.62,84.47,2.92,80.65.14Z" style="fill: #f1d199"/>
      <path d="M108.81,26.82c-1-3.16-.8,3-2.9-7.2S89.92.93,84.44.12a13.76,13.76,0,0,0-3.79,0c3.82,2.78,7,6.48,5.74,11.24-4.17-3.79-9.24-7.27-15-8.28-1.77.81-3.52,1.7-5.21,2.57-6,3.11-7.77,9.87-7.77,9.87S57.16,28.43,61.71,34.9s33.7,2.19,35.42,2.19,5.39-4.52,7.32-4.24S109.78,30,108.81,26.82Z" style="fill: #ebc376"/>
      <path d="M3.39,29.3s6,.11,7.91-.65S26.64,24,29.71,25s9.68,2.7,10.33,3.37S44.72,41,44.72,41,36,40.8,32.13,41s-4.36.22-8.07-1.34S17.6,35.48,15.82,34,1.94,30.24,1.94,30.24L0,29.23Z" style="fill: #1d858f"/>
      <path d="M71.55,30.72s23.39,2,27.26,5.24a36,36,0,0,0,7.42,5.09c1.45.72,6.78,4.64,7.91,4.54s-6.78-2.36-7.91-2-5,1.64-7.42,2.8a29.92,29.92,0,0,1-8.72,2c-1.94.13-9.21-2.29-13.57-4.06s-13.4-7.27-13.4-7.27Z" style="fill: #1f9eaa"/>
      <path d="M11.3,49.52l6.62-1.09s5.81-7.83,8.56-8.86S39.72,36,47.3,36.77s.72,9.46.72,9.46-1.36,1.58-7.66,2.19-30.23,1.91-30.23,1.91Z" style="fill: #1f9eaa"/>
      <path d="M65.37,33.21c-11.53,0-21.69-2.67-27.71-6.73a22.82,22.82,0,0,0-.37,4.07,23.58,23.58,0,0,0,47.15,0s0-.05,0-.07A63.89,63.89,0,0,1,65.37,33.21Z" style="fill: #ebc376"/>
      <ellipse cx="60.86" cy="29.87" rx="23.57" ry="18.56" style="fill: #f7e2c3"/>
      <ellipse cx="60.86" cy="29.3" rx="21.31" ry="16.93" style="fill: #ebc376"/>
      <g id="Calque_77" data-name="Calque 77">
        <g>
          <path d="M61.35,27s-2.37-1-2.86,1.23a1.72,1.72,0,0,0,2.1,2.17C61,30.27,63.09,28.87,61.35,27Z" style="fill: #f7e2c3"/>
          <path d="M60.24,30.72a2.35,2.35,0,0,1-1.46-.5,1.92,1.92,0,0,1-.52-2,2,2,0,0,1,1-1.39,3,3,0,0,1,2.21,0l.09.06a2.21,2.21,0,0,1,.7,2,3,3,0,0,1-1.55,1.79A1.55,1.55,0,0,1,60.24,30.72Zm0-3.66a1.64,1.64,0,0,0-.78.17,1.53,1.53,0,0,0-.73,1.08,1.45,1.45,0,0,0,.37,1.54,1.77,1.77,0,0,0,1.41.36,2.46,2.46,0,0,0,1.26-1.44,1.73,1.73,0,0,0-.54-1.54A3.5,3.5,0,0,0,60.23,27.06Z" style="fill: #f7e2c3"/>
        </g>
        <path d="M55.57,46.43l-.39-.27c.44-.77,5.39-21.07,8.6-34.52l.46.11C63.42,15.21,56.14,45.61,55.57,46.43Z" style="fill: #f7e2c3"/>
        <path d="M82.45,29.23c-.78-.15-28.51-.9-43.06-1.28v-.47c1.72,0,42.17,1.09,43.14,1.28Z" style="fill: #f7e2c3"/>
        <polygon points="74.26 43.63 60.37 29.16 48.02 15.86 48.37 15.54 60.7 28.82 75.39 43.63 74.26 43.63" style="fill: #f7e2c3"/>
        <polygon points="42.61 39.63 42.37 39.22 60.78 28.33 76.93 17.68 77.19 18.08 61.03 28.73 42.61 39.63" style="fill: #f7e2c3"/>
      </g>
    </symbol>
  </defs>
  <circle cx="17.34" cy="17.34" r="16.34" style="fill: #edefda;stroke: #ebc376;stroke-miterlimit: 10;stroke-width: 2px"/>
  <use width="114.25" height="53.96" transform="translate(3.68 8.81) rotate(3.13) scale(0.24)" xlink:href="#citron"/>
</svg>
