<svg id="Calque_1" data-name="Calque 1" xmlns="http://www.w3.org/2000/svg" xmlns:xlink="http://www.w3.org/1999/xlink" viewBox="0 0 34.68 34.68">
  <defs>
    <symbol id="Gin" data-name="Gin" viewBox="0 0 377.87 390.37">
      <g>
        <rect x="5.45" y="130.47" width="157.02" height="244.34" style="fill: #1f9eaa"/>
        <rect x="58.55" y="27.06" width="51.32" height="56.43" style="fill: #1f9eaa"/>
        <path d="M105.28,0H61.87c-4.07,0-7.4,2.51-7.4,5.57V24h58.21V5.57C112.68,2.51,109.35,0,105.28,0Z" style="fill: #796156"/>
        <path d="M109.91,24H57.75c-4.89,0-8.9,1.23-8.9,2.72v9h70v-9C118.81,25.23,114.8,24,109.91,24Z" style="fill: #1f9eaa"/>
        <rect x="51.28" y="80.68" width="64.6" height="11.49" rx="5.74" style="fill: #1f9eaa"/>
        <polygon points="84.21 77.62 3.46 116.15 164.97 116.15 84.21 77.62" style="fill: #1f9eaa"/>
        <rect y="114.87" width="167.47" height="18.4" rx="5.8" style="fill: #1f9eaa"/>
        <path d="M157.25,390.37H13.86A10.08,10.08,0,0,1,6.32,387a9.84,9.84,0,0,1-2.51-6.56v-2.51a7.51,7.51,0,0,1,7.52-7.45H157.25a7.51,7.51,0,0,1,7.52,7.45v5A7.51,7.51,0,0,1,157.25,390.37Z" style="fill: #1f9eaa"/>
        <rect x="5.45" y="302.55" width="157.02" height="45.45" style="fill: #f7e2c3"/>
        <polygon points="84.03 278.86 25.19 169.8 142.87 169.8 84.03 278.86" style="fill: #f7e2c3"/>
      </g>
      <circle cx="186.71" cy="211.62" r="22.92" style="fill: #ebc376"/>
      <circle cx="186.71" cy="211.47" r="21.46" style="fill: #faf8f8"/>
      <circle cx="187.03" cy="211.15" r="19.85" style="fill: #ebc376"/>
      <circle cx="186.71" cy="211.62" r="1.95" style="fill: #6b564c"/>
      <g>
        <line x1="188.16" y1="191.16" x2="185.26" y2="232.07" style="fill: #faf8f8"/>
        <polygon points="185.87 232.12 188.77 191.21 187.56 191.12 184.65 232.03 185.87 232.12" style="fill: #faf8f8"/>
      </g>
      <g>
        <line x1="207.17" y1="212.92" x2="166.26" y2="210.01" style="fill: #faf8f8"/>
        <polygon points="207.12 213.53 207.21 212.31 166.3 209.41 166.21 210.62 207.12 213.53" style="fill: #faf8f8"/>
      </g>
      <g>
        <line x1="200.15" y1="227.11" x2="173.28" y2="196.13" style="fill: #faf8f8"/>
        <polygon points="199.69 227.51 200.61 226.71 173.74 195.73 172.81 196.53 199.69 227.51" style="fill: #faf8f8"/>
      </g>
      <g>
        <line x1="171.95" y1="224.58" x2="202.93" y2="197.71" style="fill: #faf8f8"/>
        <polygon points="172.34 225.04 203.32 198.17 202.53 197.25 171.55 224.13 172.34 225.04" style="fill: #faf8f8"/>
      </g>
      <polygon points="253.05 296.36 323.19 210.05 182.9 210.05 253.05 296.36" style="fill: #087377"/>
      <polygon points="253.05 283.32 311.98 214.28 194.12 214.28 253.05 283.32" style="fill: #49b2b9"/>
      <polygon points="250.01 379.63 256.08 379.63 256.08 291.42 250.01 291.42 250.01 379.63" style="fill: #087377"/>
      <polygon points="294.89 387.63 254.93 375.73 250.01 375.73 211.08 387.6 211.08 389.95 294.89 389.02 294.89 387.63" style="fill: #087377"/>
      <polygon points="311.98 214.28 194.12 214.28 207.21 229.62 298.88 229.62 311.98 214.28" style="fill: #1f9eaa"/>
      <path d="M267.28,230a4,4,0,0,0-.78-.05h-.3a5.34,5.34,0,0,0-1.5.22,5.46,5.46,0,0,0-1.57-.22,3.91,3.91,0,0,0-.49,0l40.05-76.7,74.08-13.15,1.1,6.2-71,12.61-37.2,71.24a5.44,5.44,0,0,0-1.61-.23A6,6,0,0,0,267.28,230Z" style="fill: #6b564c"/>
    </symbol>
  </defs>
  <circle cx="17.34" cy="17.34" r="16.34" style="fill: #edefda;stroke: #1f9eaa;stroke-miterlimit: 10;stroke-width: 2px"/>
  <use width="377.87" height="390.37" transform="translate(7.71 4.17) scale(0.06)" xlink:href="#Gin"/>
</svg>
