<?xml version="1.0" encoding="UTF-8"?>
<svg id="Calque_1" data-name="Calque 1" xmlns="http://www.w3.org/2000/svg" viewBox="0 0 34.68 34.68">
  <circle cx="17.34" cy="17.34" r="16.34" style="fill: #edefda; stroke: #b66fab; stroke-miterlimit: 10; stroke-width: 2px;"/>
  <g>
    <rect x="8.05" y="12.25" width="9.73" height="15.15" style="fill: #1f9eaa;"/>
    <rect x="11.34" y="5.84" width="3.18" height="3.5" style="fill: #1f9eaa;"/>
    <path d="M14.24,4.17h-2.69c-.25,0-.46.16-.46.35v1.14h3.61v-1.14c0-.19-.21-.35-.46-.35Z" style="fill: #796156;"/>
    <path d="M14.53,5.65h-3.23c-.3,0-.55.08-.55.17v.56h4.34v-.56c0-.09-.25-.17-.55-.17Z" style="fill: #1f9eaa;"/>
    <rect x="10.89" y="9.17" width="4" height=".71" rx=".36" ry=".36" style="fill: #1f9eaa;"/>
    <polygon points="12.94 8.98 7.93 11.37 17.94 11.37 12.94 8.98" style="fill: #1f9eaa;"/>
    <rect x="7.71" y="11.29" width="10.38" height="1.14" rx=".57" ry=".57" style="fill: #1f9eaa;"/>
    <path d="M17.46,28.37h-8.89c-.19,0-.35-.08-.47-.21-.1-.11-.16-.25-.16-.41v-.16c0-.25.21-.46.47-.46h9.05c.26,0,.47.21.47.46v.31c0,.25-.21.46-.47.46Z" style="fill: #1f9eaa;"/>
    <rect x="8.05" y="22.92" width="9.73" height="2.82" style="fill: #f7e2c3;"/>
    <polygon points="12.92 21.45 9.28 14.69 16.57 14.69 12.92 21.45" style="fill: #f7e2c3;"/>
  </g>
  <circle cx="19.29" cy="17.29" r="1.42" style="fill: #ebc376;"/>
  <circle cx="19.29" cy="17.28" r="1.33" style="fill: #faf8f8;"/>
  <circle cx="19.31" cy="17.26" r="1.23" style="fill: #ebc376;"/>
  <circle cx="19.29" cy="17.29" r=".12" style="fill: #6b564c;"/>
  <g>
    <line x1="19.38" y1="16.02" x2="19.2" y2="18.55" style="fill: #faf8f8;"/>
    <rect x="18.02" y="17.25" width="2.54" height=".08" transform="translate(.68 35.3) rotate(-85.94)" style="fill: #faf8f8;"/>
  </g>
  <g>
    <line x1="20.56" y1="17.37" x2="18.02" y2="17.19" style="fill: #faf8f8;"/>
    <rect x="19.25" y="16.01" width=".08" height="2.54" transform="translate(.69 35.29) rotate(-85.93)" style="fill: #faf8f8;"/>
  </g>
  <g>
    <line x1="20.12" y1="18.25" x2="18.46" y2="16.33" style="fill: #faf8f8;"/>
    <rect x="19.25" y="16.01" width=".08" height="2.54" transform="translate(-6.61 16.87) rotate(-40.94)" style="fill: #faf8f8;"/>
  </g>
  <g>
    <line x1="18.37" y1="18.09" x2="20.3" y2="16.42" style="fill: #faf8f8;"/>
    <rect x="18.06" y="17.22" width="2.54" height=".08" transform="translate(-6.58 16.89) rotate(-40.94)" style="fill: #faf8f8;"/>
  </g>
  <polygon points="23.4 22.54 27.75 17.19 19.05 17.19 23.4 22.54" style="fill: #087377;"/>
  <polygon points="23.4 21.73 27.06 17.45 19.75 17.45 23.4 21.73" style="fill: #49b2b9;"/>
  <rect x="23.21" y="22.23" width=".38" height="5.47" transform="translate(46.8 49.93) rotate(-180)" style="fill: #087377;"/>
  <polygon points="26 28.2 23.52 27.46 23.21 27.46 20.8 28.2 20.8 28.34 26 28.28 26 28.2" style="fill: #087377;"/>
  <polygon points="27.06 17.45 19.75 17.45 20.56 18.4 26.24 18.4 27.06 17.45" style="fill: #1f9eaa;"/>
  <path d="M24.28,18.42s-.03,0-.05,0h-.02s-.06,0-.09.01c-.03,0-.06-.01-.1-.01-.01,0-.02,0-.03,0l2.48-4.75,4.59-.81.07.38-4.4.78-2.31,4.42s-.06-.01-.1-.01c-.02,0-.03,0-.05,0Z" style="fill: #b66fab;"/>
</svg>