<svg id="Calque_1" data-name="Calque 1" xmlns="http://www.w3.org/2000/svg" xmlns:xlink="http://www.w3.org/1999/xlink" viewBox="0 0 34.68 34.68">
  <defs>
    <symbol id="Miel" data-name="Miel" viewBox="0 0 154.23 232.99">
      <g id="Calque_141" data-name="Calque 141">
        <path d="M20.06,230.49H98.6c17.11-38,19.39-64.07,16.49-81.36H3.57C.67,166.42,3,192.45,20.06,230.49Z" style="fill: #ebc376"/>
      </g>
      <g id="Calque_141_-_copie" data-name="Calque 141 - copie">
        <g id="Calque_144" data-name="Calque 144">
          <polygon points="54.59 77.03 54.59 143.34 47.28 158.66 75.06 158.66 68.5 144.02 68.5 77.39 65.33 78.66 54.59 77.03" style="fill: #ebc376"/>
          <g>
            <path d="M99.25,231.49H19.41l-.26-.59C4.5,198.33-1.07,170.76,2.59,149c3.45-20.6,14-29,16.47-30.68v-16.8H99.6v16.8c2.43,1.69,13,10.08,16.47,30.68h0c3.66,21.79-1.91,49.36-16.56,81.93Zm-78.54-2H98c14.29-32,19.72-58.93,16.15-80.19-3.67-21.86-15.89-29.54-16-29.61l-.48-.29V103.49H21.06v15.9l-.48.3c-.13.07-12.35,7.75-16,29.61C1,170.56,6.42,197.54,20.71,229.49Z" style="fill: #6b564c"/>
            <path d="M100.22,233H18.44l-.66-1.47C3,198.67-2.6,170.81,1.11,148.72,4.42,129,14.33,120,17.56,117.53V100H101.1v17.54c3.73,2.79,13.17,11.64,16.45,31.19,3.71,22.09-1.9,49.95-16.67,82.8Zm-78.54-5H97c13.87-31.28,19.13-57.67,15.64-78.45C109.1,128.57,97.41,121,97.3,121l-1.2-.72V105H22.56v15.24l-1.2.74c-.11.07-11.8,7.6-15.32,28.57C2.55,170.32,7.81,196.71,21.68,228Z" style="fill: #6b564c"/>
          </g>
        </g>
        <g id="Calque_142" data-name="Calque 142">
          <path d="M153,2.18h0a4.11,4.11,0,0,1-.9,5.71L65,71.12a4.1,4.1,0,0,1-5.71-.91h0a4.1,4.1,0,0,1,.9-5.7l87-63.23A4.1,4.1,0,0,1,153,2.18Z" style="fill: #bab095"/>
          <path d="M62.62,72.4a4.59,4.59,0,0,1-2.7-8.3L147,.87a4.59,4.59,0,0,1,3.41-.81,4.52,4.52,0,0,1,3,1.83h0a4.59,4.59,0,0,1-1,6.4l-87,63.23A4.55,4.55,0,0,1,62.62,72.4Zm87-71.4a3.51,3.51,0,0,0-2.09.68l-87,63.23a3.58,3.58,0,1,0,4.21,5.8l87-63.23a3.58,3.58,0,0,0,.79-5,3.55,3.55,0,0,0-2.34-1.42A3.66,3.66,0,0,0,149.63,1Z" style="fill: #6b564c"/>
          <path d="M53.86,61.86,65.57,78a3.92,3.92,0,0,1-.87,5.46h0a3.93,3.93,0,0,1-5.47-.86L47.53,66.47A3.92,3.92,0,0,1,48.39,61h0A3.92,3.92,0,0,1,53.86,61.86Z" style="fill: #bab095"/>
          <path d="M54.27,61.57,66,77.68a4.41,4.41,0,1,1-7.14,5.19L47.12,66.76a4.42,4.42,0,1,1,7.15-5.19Zm5.37,20.71a3.41,3.41,0,1,0,5.52-4L53.46,62.16a3.42,3.42,0,0,0-5.53,4Z" style="fill: #6b564c"/>
          <path d="M57.08,52.69,75.29,77.75a3.93,3.93,0,0,1-.86,5.47h0A3.92,3.92,0,0,1,69,82.35L50.75,57.29a3.93,3.93,0,0,1,.86-5.47h0A3.92,3.92,0,0,1,57.08,52.69Z" style="fill: #bab095"/>
          <path d="M57.49,52.39,75.7,77.45a4.42,4.42,0,1,1-7.15,5.19L50.34,57.58a4.42,4.42,0,0,1,7.15-5.19ZM69.36,82.06a3.42,3.42,0,0,0,5.53-4L56.68,53a3.42,3.42,0,0,0-5.53,4Z" style="fill: #6b564c"/>
          <path d="M61.87,46,83.18,75.28a3.94,3.94,0,0,1-.87,5.47h0a3.93,3.93,0,0,1-5.47-.87L55.53,50.55a3.94,3.94,0,0,1,.87-5.47h0A3.94,3.94,0,0,1,61.87,46Z" style="fill: #bab095"/>
          <path d="M62.27,45.66,83.58,75a4.41,4.41,0,0,1-7.14,5.19L55.13,50.85a4.41,4.41,0,1,1,7.14-5.19Zm15,33.93a3.41,3.41,0,0,0,5.52-4L61.46,46.24a3.41,3.41,0,1,0-5.52,4Z" style="fill: #6b564c"/>
          <path d="M68.2,41.35,89.51,70.68a3.92,3.92,0,0,1-.87,5.47h0a3.92,3.92,0,0,1-5.46-.87L61.87,46a3.93,3.93,0,0,1,.86-5.47h0A3.94,3.94,0,0,1,68.2,41.35Z" style="fill: #bab095"/>
          <path d="M68.6,41.05,89.92,70.39a4.41,4.41,0,0,1-7.15,5.18L61.46,46.24a4.41,4.41,0,0,1,7.14-5.19ZM83.58,75a3.42,3.42,0,0,0,5.53-4L67.8,41.64a3.42,3.42,0,0,0-5.53,4Z" style="fill: #6b564c"/>
          <path d="M76.09,38.88l18.2,25.06a3.93,3.93,0,0,1-.86,5.47h0A3.92,3.92,0,0,1,88,68.54L69.75,43.48A3.94,3.94,0,0,1,70.62,38h0A3.94,3.94,0,0,1,76.09,38.88Z" style="fill: #bab095"/>
          <path d="M76.49,38.59,94.7,63.65a4.41,4.41,0,0,1-7.14,5.19L69.35,43.78a4.41,4.41,0,1,1,7.14-5.19ZM88.36,68.25a3.42,3.42,0,0,0,5.53-4L75.68,39.17a3.41,3.41,0,0,0-5.52,4Z" style="fill: #6b564c"/>
          <path d="M85.67,38.75,97.38,54.86a3.93,3.93,0,0,1-.87,5.47h0A3.93,3.93,0,0,1,91,59.47L79.34,43.36a3.92,3.92,0,0,1,.86-5.47h0A3.92,3.92,0,0,1,85.67,38.75Z" style="fill: #bab095"/>
          <path d="M86.08,38.46l11.7,16.11a4.41,4.41,0,1,1-7.14,5.19L78.93,43.65a4.42,4.42,0,0,1,7.15-5.19Zm5.37,20.71a3.41,3.41,0,1,0,5.52-4L85.27,39.05a3.42,3.42,0,0,0-5.53,4Z" style="fill: #6b564c"/>
        </g>
      </g>
      <rect x="25.52" y="116.32" width="65.02" height="3.06" rx="1.53" style="fill: #bab095"/>
      <path d="M20.85,191.41c-8.22-18.36-10.09-33.3-5.56-44.43,3.93-9.64,11.24-12.61,11.55-12.74l.73,1.86-.36-.93.37.93c-.07,0-6.88,2.84-10.46,11.69-4.29,10.6-2.42,25,5.55,42.8Z" style="fill: #bab095"/>
      <g id="Calque_143" data-name="Calque 143">
        <path d="M88.94,76.55a4.41,4.41,0,0,0,1-6.07,4.4,4.4,0,0,0,4.73-6.83l-.34-.46C89.72,60.5,84.08,58.37,82,62.92c-2.22,8.5-15.38,7.19-20.64,8.21A12.06,12.06,0,0,0,54.59,77l4.24,5.84a4.4,4.4,0,0,0,8-2.63l1.75,2.4a4.39,4.39,0,0,0,8-2.38,4.4,4.4,0,0,0,7.84-3.36A4.41,4.41,0,0,0,88.94,76.55Z" style="fill: #ebc376"/>
      </g>
    </symbol>
  </defs>
  <circle cx="17.34" cy="17.34" r="16.34" style="fill: #edefda;stroke: #e28563;stroke-miterlimit: 10;stroke-width: 2px"/>
  <use width="154.23" height="232.99" transform="translate(11.21 6) scale(0.1)" xlink:href="#Miel"/>
</svg>
