<svg id="Calque_1" data-name="Calque 1" xmlns="http://www.w3.org/2000/svg" xmlns:xlink="http://www.w3.org/1999/xlink" viewBox="0 0 34.68 34.68">
  <defs>
    <symbol id="Miel" data-name="Miel" viewBox="0 0 152.73 231.49">
      <g id="Calque_141" data-name="Calque 141">
        <path d="M18.56,230.49H97.1c17.11-38,19.39-64.07,16.49-81.36H2.07C-.83,166.42,1.46,192.45,18.56,230.49Z" style="fill: #ebc376"/>
      </g>
      <g id="Calque_141_-_copie" data-name="Calque 141 - copie">
        <g id="Calque_144" data-name="Calque 144">
          <polygon points="53.09 77.03 53.09 143.34 45.78 158.66 73.56 158.66 67.01 144.02 67.01 77.39 63.84 78.66 53.09 77.03" style="fill: #ebc376"/>
          <path d="M97.75,231.49H17.91l-.26-.59C3,198.33-2.57,170.76,1.09,149c3.46-20.6,14-29,16.47-30.68v-16.8H98.1v16.8c2.43,1.69,13,10.08,16.47,30.68h0c3.66,21.79-1.91,49.36-16.55,81.93Zm-78.54-2H96.46c14.28-32,19.71-58.93,16.14-80.19-3.67-21.86-15.89-29.54-16-29.61l-.48-.29V103.49H19.56v15.9l-.48.3c-.13.07-12.35,7.75-16,29.61C-.51,170.56,4.92,197.54,19.21,229.49Z" style="fill: #6b564c"/>
        </g>
        <g id="Calque_142" data-name="Calque 142">
          <g>
            <path d="M151.45,2.18h0a4.11,4.11,0,0,1-.9,5.71l-87,63.23a4.1,4.1,0,0,1-5.71-.91h0a4.1,4.1,0,0,1,.9-5.7l87-63.23A4.1,4.1,0,0,1,151.45,2.18Z" style="fill: #bab095"/>
            <path d="M61.12,72.4a4.59,4.59,0,0,1-2.7-8.3l87-63.23a4.59,4.59,0,0,1,3.41-.81,4.52,4.52,0,0,1,3,1.83h0a4.59,4.59,0,0,1-1,6.4l-87,63.23A4.55,4.55,0,0,1,61.12,72.4Zm87-71.4a3.51,3.51,0,0,0-2.09.68L59,64.91a3.58,3.58,0,0,0,4.21,5.8l87-63.23a3.57,3.57,0,0,0-1.54-6.43A3.9,3.9,0,0,0,148.13,1Z" style="fill: #6b564c"/>
          </g>
          <g>
            <path d="M52.36,61.86,64.07,78a3.92,3.92,0,0,1-.87,5.46h0a3.93,3.93,0,0,1-5.47-.86L46,66.47A3.92,3.92,0,0,1,46.89,61h0A3.92,3.92,0,0,1,52.36,61.86Z" style="fill: #bab095"/>
            <path d="M52.77,61.57l11.7,16.11a4.41,4.41,0,1,1-7.14,5.19L45.62,66.76a4.42,4.42,0,1,1,7.15-5.19Zm5.37,20.71a3.41,3.41,0,1,0,5.52-4L52,62.16a3.42,3.42,0,0,0-5.53,4Z" style="fill: #6b564c"/>
          </g>
          <g>
            <path d="M55.58,52.69,73.79,77.75a3.93,3.93,0,0,1-.86,5.47h0a3.93,3.93,0,0,1-5.47-.87L49.25,57.29a3.93,3.93,0,0,1,.86-5.47h0A3.92,3.92,0,0,1,55.58,52.69Z" style="fill: #bab095"/>
            <path d="M56,52.39,74.2,77.45a4.42,4.42,0,1,1-7.15,5.19L48.84,57.58A4.42,4.42,0,0,1,56,52.39ZM67.86,82.06a3.42,3.42,0,0,0,5.53-4L55.18,53a3.42,3.42,0,0,0-5.53,4Z" style="fill: #6b564c"/>
          </g>
          <g>
            <path d="M60.37,46,81.68,75.28a3.94,3.94,0,0,1-.87,5.47h0a3.93,3.93,0,0,1-5.47-.87L54,50.55a3.94,3.94,0,0,1,.87-5.47h0A3.94,3.94,0,0,1,60.37,46Z" style="fill: #bab095"/>
            <path d="M60.77,45.66,82.08,75a4.41,4.41,0,0,1-7.14,5.19L53.63,50.85a4.41,4.41,0,1,1,7.14-5.19Zm15,33.93a3.41,3.41,0,0,0,5.52-4L60,46.24a3.41,3.41,0,0,0-5.52,4Z" style="fill: #6b564c"/>
          </g>
          <g>
            <path d="M66.7,41.35,88,70.68a3.93,3.93,0,0,1-.86,5.47h0a3.93,3.93,0,0,1-5.47-.87L60.37,46a3.93,3.93,0,0,1,.86-5.47h0A3.93,3.93,0,0,1,66.7,41.35Z" style="fill: #bab095"/>
            <path d="M67.11,41.05,88.42,70.39a4.41,4.41,0,0,1-7.15,5.18L60,46.24a4.42,4.42,0,0,1,7.15-5.19ZM82.08,75a3.42,3.42,0,0,0,5.53-4L66.3,41.64a3.42,3.42,0,0,0-5.53,4Z" style="fill: #6b564c"/>
          </g>
          <g>
            <path d="M74.59,38.88,92.8,63.94a3.94,3.94,0,0,1-.87,5.47h0a3.92,3.92,0,0,1-5.47-.87L68.25,43.48A3.94,3.94,0,0,1,69.12,38h0A3.94,3.94,0,0,1,74.59,38.88Z" style="fill: #bab095"/>
            <path d="M75,38.59,93.2,63.65a4.41,4.41,0,0,1-7.14,5.19L67.85,43.78A4.41,4.41,0,1,1,75,38.59ZM86.87,68.25a3.41,3.41,0,1,0,5.52-4L74.18,39.17a3.41,3.41,0,0,0-5.52,4Z" style="fill: #6b564c"/>
          </g>
          <g>
            <path d="M84.17,38.75,95.88,54.86A3.93,3.93,0,0,1,95,60.33h0a3.93,3.93,0,0,1-5.47-.86L77.84,43.36a3.92,3.92,0,0,1,.86-5.47h0A3.92,3.92,0,0,1,84.17,38.75Z" style="fill: #bab095"/>
            <path d="M84.58,38.46l11.7,16.11a4.41,4.41,0,1,1-7.14,5.19L77.43,43.65a4.42,4.42,0,0,1,7.15-5.19ZM90,59.17a3.41,3.41,0,1,0,5.52-4L83.77,39.05a3.42,3.42,0,0,0-5.53,4Z" style="fill: #6b564c"/>
          </g>
        </g>
      </g>
      <rect x="20.26" y="116.79" width="65.02" height="3.06" rx="1.53" style="fill: #bab095"/>
      <path d="M19.35,191.41c-8.22-18.36-10.09-33.3-5.56-44.43,3.93-9.64,11.24-12.61,11.55-12.74l.74,1.86-.37-.93.37.93c-.07,0-6.88,2.84-10.46,11.69-4.29,10.6-2.42,25,5.55,42.8Z" style="fill: #bab095"/>
      <g id="Calque_143" data-name="Calque 143">
        <path d="M87.44,76.55a4.41,4.41,0,0,0,1-6.07,4.4,4.4,0,0,0,4.73-6.83l-.34-.46c-4.64-2.69-10.28-4.82-12.34-.27-2.22,8.5-15.38,7.19-20.64,8.21A12.06,12.06,0,0,0,53.09,77l4.24,5.84a4.4,4.4,0,0,0,8-2.63l1.75,2.4a4.39,4.39,0,0,0,8-2.38,4.4,4.4,0,0,0,7.84-3.36A4.41,4.41,0,0,0,87.44,76.55Z" style="fill: #ebc376"/>
      </g>
    </symbol>
  </defs>
  <circle cx="17.34" cy="17.34" r="16.34" style="fill: #edefda;stroke: #e28563;stroke-miterlimit: 10;stroke-width: 2px"/>
  <use width="152.73" height="231.49" transform="translate(11.89 6.04) scale(0.09)" xlink:href="#Miel"/>
</svg>
