<svg id="Calque_1" data-name="Calque 1" xmlns="http://www.w3.org/2000/svg" xmlns:xlink="http://www.w3.org/1999/xlink" viewBox="0 0 34.68 34.68">
  <defs>
    <symbol id="Olives_vertes" data-name="Olives_vertes" viewBox="0 0 19.13 23.65">
      <path d="M9.84,7.11a1.8,1.8,0,0,1,.4.82c0,.37-.4,3.91,4.12,11a5,5,0,0,1,1.33,3.42,2.12,2.12,0,0,0,.63,1.28,4.45,4.45,0,0,1,.14-2.5c.45-1.58,1-4.8-2.06-9.43s-3.93-4.2-3.93-4.2L10,7Z" style="fill: #8e9669"/>
      <g id="Calque_66" data-name="Calque 66">
        <g>
          <path d="M15.37,17.57a.23.23,0,0,0,0-.11C15.35,17.63,15.35,17.7,15.37,17.57Z" style="fill: #7e8956"/>
          <path d="M16.69,20.13c.29-1.77.19-4.62-2.29-8.41-2.22-3.38-3.3-4.06-3.72-4.19.57,1.27,2.7,6.15,2.45,6.92,0,0,.35.09.29-.88s1.75,3.11,1.94,3.89c0-.24,0-.66,0-1C15.4,16,16.52,18.76,16.69,20.13Z" style="fill: #7e8956"/>
        </g>
      </g>
      <path d="M12.27,9.15s3.8,4.66,3.93,7.09a6.86,6.86,0,0,1,.19,1.4S13,11.38,12.76,10.93s-1-2.31-1.16-2.5A9.13,9.13,0,0,1,12.27,9.15Z" style="fill: #566c2f"/>
      <g id="Calque_62" data-name="Calque 62">
        <path d="M8.14,1.71a5.84,5.84,0,0,0-.87,2c0,.65.45-.11.45-.11l.59-1.73Z" style="fill: #b7d2d5"/>
      </g>
      <g id="Calque_56" data-name="Calque 56">
        <path d="M8.87,2.15A6.59,6.59,0,0,0,7.06,0L6.79.4a4.3,4.3,0,0,1,.83.79A3.9,3.9,0,0,1,6.28,3.27l.41.46S7.12,4,7.85,1.46a7.84,7.84,0,0,1,.62,1A10.51,10.51,0,0,1,9.53,9.32l.3-.06A10.72,10.72,0,0,0,8.87,2.15Z" style="fill: #3e3b35"/>
      </g>
      <path d="M8.2,17.37c-3.3-1.19-3-7.74.77-8.54C14.59,7.73,13.69,18.85,8.2,17.37Z" style="fill: #566c2f"/>
      <path d="M10.48,16a10.67,10.67,0,0,0,1.31-1.43c.08-.27-.16-.26-.36-.26s1.34-2.66.12-2C12.61,7,4.08,8.56,7.09,15.75A2.13,2.13,0,0,0,10.48,16Z" style="fill: #6e7c44"/>
      <path d="M7.35,14.68s-1.29-5,2.93-4.79C10.28,9.89,7.81,10.94,7.35,14.68Z" style="fill: #8e9669"/>
      <path d="M.46,9.28c-1.87-3,2.36-8,5.87-6.25C11.43,5.62,3.87,13.83.46,9.28Z" style="fill: #7e8956"/>
      <path d="M3.09,9.62A10.23,10.23,0,0,0,5,9.3c.23-.16,0-.31-.12-.42S7.57,7.61,6.21,7.37c4.11-3.55-3.57-7.56-5.63,0A2.14,2.14,0,0,0,3.09,9.62Z" style="fill: #8e9669"/>
      <path d="M1.45,6.64s2.05-4.72,5.25-2C6.7,4.67,4.11,4,1.45,6.64Z" style="fill: #afb393"/>
      <path d="M8.11,3.72c-.46-1.2-5.85-.84-2.67,16C7.12,16,9.2,12.21,8.11,3.72Z" style="fill: #8e9669"/>
      <g id="Calque_58" data-name="Calque 58">
        <g id="Calque_57" data-name="Calque 57">
          <path d="M6.49,17.4C7.84,14.27,9,10.47,8.11,3.72a.81.81,0,0,0-.88-.41c-.35,1.29-1.08,4-1.18,4.83-.13,1.1.46-1.35,1-1.93s-.93,4.3-.92,5.24A22.57,22.57,0,0,1,7.53,7.86c.41-.45-.74,8.85-1,9.53Z" style="fill: #566c2f"/>
        </g>
        <path d="M7.64,6.28" style="fill: #566c2f"/>
        <g id="Calque_60" data-name="Calque 60">
          <polyline points="7.58 6.27 7.72 7.11 7.89 7.66" style="fill: #566c2f"/>
          <g>
            <path d="M7.7,11.51A2.93,2.93,0,0,0,7.83,11C7.76,11.31,7.7,11.51,7.7,11.51Z" style="fill: #566c2f"/>
            <path d="M8.05,7.47a23.42,23.42,0,0,0-.3-3.17,10.63,10.63,0,0,0-.36,2,1.2,1.2,0,0,0,.3.63A14.06,14.06,0,0,1,7.83,11,8.88,8.88,0,0,0,8.05,7.47Zm-.36-.55Z" style="fill: #566c2f"/>
          </g>
        </g>
      </g>
      <g id="feuille2">
        <path d="M8.77,2s1,1,1.1,1.24,1.89.73,5.06,5.2.9,1.86,4.2,5.34a6.11,6.11,0,0,1-2.12-.6,11.82,11.82,0,0,1-5.64-4.59A11.11,11.11,0,0,1,9.79,3.4,13.55,13.55,0,0,0,8.6,2.06" style="fill: #8e9669"/>
      </g>
      <path d="M18,12.54c-1.58-1.64-.35-.33-3.05-4.13-3.17-4.47-4.94-5-5.06-5.2L9.79,3.1l-.12.14.12.16A8.13,8.13,0,0,0,10,5.19c0-.37-.15-1.36,0-1.43a1.42,1.42,0,0,1,1.55,1.08A5,5,0,0,1,12,6.61c-.06.14-.47-.45-.51-.3a20.13,20.13,0,0,0,1.6,3.1c.33.44.36.65.42.52a4.2,4.2,0,0,0-.36-1,23.79,23.79,0,0,0,2.29,2.58c.31.11-.12-.57-.11-.63A30,30,0,0,0,18,12.54Z" style="fill: #7e8956"/>
      <g id="Calque_65" data-name="Calque 65">
        <path d="M12.15,5.34A26.15,26.15,0,0,1,15.72,10l1.13,1.7s-2.8-2.58-3.4-3.32A13.32,13.32,0,0,1,12.15,5.34Z" style="fill: #566c2f"/>
      </g>
    </symbol>
  </defs>
  <circle cx="17.34" cy="17.34" r="16.34" style="fill: #edefda;stroke: #576d2f;stroke-miterlimit: 10;stroke-width: 2px"/>
  <use width="19.13" height="23.65" transform="translate(6.91 3.16) scale(1.14)" xlink:href="#Olives_vertes"/>
</svg>
