<svg id="Calque_1" data-name="Calque 1" xmlns="http://www.w3.org/2000/svg" xmlns:xlink="http://www.w3.org/1999/xlink" viewBox="0 0 34.68 34.68">
  <defs>
    <symbol id="Olives" data-name="Olives" viewBox="0 0 30.04 32.65">
      <path d="M14.54,9.81a2.78,2.78,0,0,1,.8,1.11c.13.54.43,5.91,9,15.27a7.58,7.58,0,0,1,2.86,4.73,3.18,3.18,0,0,0,1.27,1.73A6.81,6.81,0,0,1,28,28.9c.26-2.46.19-7.37-5.51-13.44s-6.94-5.2-6.94-5.2l-.79-.68Z" style="fill: #b7d2d5"/>
      <g id="Calque_68" data-name="Calque 68">
        <g id="Calque_66" data-name="Calque 66">
          <g>
            <path d="M25.47,23.88a.45.45,0,0,0,0-.16C25.46,24,25.47,24.09,25.47,23.88Z" style="fill: #1f9eaa"/>
            <path d="M28.1,27.34c0-2.71-.92-6.9-5.59-11.88-4.18-4.44-6-5.16-6.61-5.23,1.17,1.73,5.61,8.41,5.44,9.61,0,0,.54.05.19-1.38s3.42,4.15,3.9,5.26c-.05-.36-.12-1-.2-1.47C25.1,21.5,27.48,25.34,28.1,27.34Z" style="fill: #1f9eaa"/>
          </g>
        </g>
        <path d="M18.68,12.21s6.84,5.92,7.68,9.48a10.64,10.64,0,0,1,.64,2s-6.6-8.41-7.14-9-2.12-3.16-2.37-3.4S18.68,12.21,18.68,12.21Z" style="fill: #087377"/>
      </g>
      <g id="Calque_62" data-name="Calque 62">
        <path d="M10.61,2.25a8.78,8.78,0,0,0-.78,3.18c.18,1,.64-.27.64-.27l.42-2.74Z" style="fill: #b7d2d5"/>
      </g>
      <g id="Calque_56" data-name="Calque 56">
        <path d="M11.81,2.72A9.63,9.63,0,0,0,8.55,0L8.26.66a7.56,7.56,0,0,1,1.44,1A6,6,0,0,1,8.26,5.06L9,5.63s.7.25,1.13-3.67a11.15,11.15,0,0,1,1.17,1.25,15.8,15.8,0,0,1,3.38,10l.42-.16C15,7.77,13.28,4.52,11.81,2.72Z" style="fill: #3e3b35"/>
      </g>
      <g>
        <path d="M14.78,25.46c-5.2-.9-6.54-10.68-1.08-12.87C21.75,9.49,23.31,26.22,14.78,25.46Z" style="fill: #1f9eaa"/>
        <path d="M17.82,22.86a15.52,15.52,0,0,0,1.56-2.47c.06-.41-.3-.34-.59-.28s1.29-4.29-.36-3c.18-8.18-12-3.62-5.71,6.26A3.22,3.22,0,0,0,17.82,22.86Z" style="fill: #5aabb6"/>
        <path d="M12.83,21.69s-3.22-7,3.09-7.86C15.92,13.83,12.52,16,12.83,21.69Z" style="fill: #91c1ca"/>
      </g>
      <g>
        <path d="M1.19,15.49C-2.35,11.58,2.61,3,8.27,4.68,16.51,7.19,7.45,21.34,1.19,15.49Z" style="fill: #1f9eaa"/>
        <path d="M5.19,15.31a16.35,16.35,0,0,0,2.75-1c.29-.3,0-.46-.3-.59s3.66-2.59,1.58-2.59C14.39,4.81,2,.87.86,12.56A3.23,3.23,0,0,0,5.19,15.31Z" style="fill: #5aabb6"/>
        <path d="M2,11.31S3.78,3.78,9.25,7C9.25,7,5.22,6.66,2,11.31Z" style="fill: #91c1ca"/>
      </g>
      <path d="M11.08,5.24c-1-1.65-8.89.29.23,24.43C12.84,23.77,14.92,17.54,11.08,5.24Z" style="fill: #b7d2d5"/>
      <g id="Calque_58" data-name="Calque 58">
        <g id="Calque_57" data-name="Calque 57">
          <path d="M12.26,26C13.45,21,14.14,15,11.08,5.24a1.22,1.22,0,0,0-1.4-.37c-.19,2-.57,6.19-.49,7.46.1,1.67.32-2.12.92-3.11s-.25,6.61,0,8c0,0,.7-4.9,1.2-5.69s1.22,13.31.95,14.4Z" style="fill: #1f9eaa"/>
        </g>
        <path d="M11.05,9.16" style="fill: #087377"/>
        <g id="Calque_60" data-name="Calque 60">
          <polyline points="10.97 9.16 11.39 10.37 11.79 11.14" style="fill: #087377"/>
          <g>
            <path d="M12.52,16.89a5.13,5.13,0,0,0,.05-.8C12.55,16.58,12.52,16.89,12.52,16.89Z" style="fill: #087377"/>
            <path d="M12,10.82A35.63,35.63,0,0,0,10.7,6.19a15.06,15.06,0,0,0,0,3.06,1.73,1.73,0,0,0,.6.85,20.88,20.88,0,0,1,1.27,6A13.45,13.45,0,0,0,12,10.82Zm-.68-.72Z" style="fill: #087377"/>
          </g>
        </g>
      </g>
      <g id="feuille2">
        <path d="M11.61,2.47s1.73,1.29,2,1.55,3,.6,8.86,6.4,1.82,2.51,7.61,6.81c0,0-.62.19-3.28-.34s-7.21-2.34-9.57-5.33a16.58,16.58,0,0,1-3.7-7.24,19.26,19.26,0,0,0-2.11-1.66" style="fill: #b7d2d5"/>
      </g>
      <g id="Calque_64" data-name="Calque 64">
        <path d="M28,15.74c-2.77-2-.6-.4-5.59-5.32-5.87-5.8-8.64-6.14-8.86-6.4l-.15-.14a2.58,2.58,0,0,0-.15.25l.22.19a12.43,12.43,0,0,0,.81,2.61c-.13-.54-.57-2-.34-2.13A2.11,2.11,0,0,1,16.53,6a7.34,7.34,0,0,1,1.11,2.51c-.05.22-.81-.54-.84-.32A31.55,31.55,0,0,0,20,12.38c.62.56.72.86.77.66A6.28,6.28,0,0,0,20,11.66s3.57,3.15,4.06,3.23-.32-.82-.32-.91A43.81,43.81,0,0,0,28,15.74Z" style="fill: #1f9eaa"/>
      </g>
      <g id="Calque_65" data-name="Calque 65">
        <path d="M17.49,6.58c.2.15,4.79,3.53,6.51,5.92l2.11,2.21s-4.82-3.08-5.91-4A20.19,20.19,0,0,1,17.49,6.58Z" style="fill: #087377"/>
      </g>
    </symbol>
  </defs>
  <circle cx="17.34" cy="17.34" r="16.34" style="fill: #edefda;stroke: #087377;stroke-miterlimit: 10;stroke-width: 2px"/>
  <use width="30.04" height="32.65" transform="matrix(0.69, 0.12, -0.12, 0.69, 8.9, 3.5)" xlink:href="#Olives"/>
</svg>
